HIERARCHY
ROOT Hips
{
	OFFSET 0.000000 88.474243 0.000000
	CHANNELS 6 Xposition Yposition Zposition Zrotation Yrotation Xrotation 
	JOINT Hips_Spine
	{
		OFFSET 0.000000 0.000000 0.000000
		CHANNELS 3 Zrotation Yrotation Xrotation
		JOINT Spine
		{
			OFFSET 0.005100 8.711998 -0.691000
			CHANNELS 3 Zrotation Yrotation Xrotation
			JOINT Spine1
			{
				OFFSET -0.009200 8.660301 -1.275000
				CHANNELS 3 Zrotation Yrotation Xrotation
				JOINT Spine2
				{
					OFFSET 0.006300 9.852501 -1.857000
					CHANNELS 3 Zrotation Yrotation Xrotation
					JOINT Spine2_Neck
					{
						OFFSET 0.000000 0.000000 0.000000
						CHANNELS 3 Zrotation Yrotation Xrotation
						JOINT Neck
						{
							OFFSET 0.016300 11.420799 -0.263300
							CHANNELS 3 Zrotation Yrotation Xrotation
							End Site #name: Head
							{
								OFFSET -0.019200 9.262405 2.362500
							}
						}
					}
					JOINT Spine2_LeftShoulder
					{
						OFFSET 0.000000 0.000000 0.000000
						CHANNELS 3 Zrotation Yrotation Xrotation
						JOINT LeftShoulder
						{
							OFFSET 5.616900 6.732201 -0.345700
							CHANNELS 3 Zrotation Yrotation Xrotation
							JOINT LeftArm
							{
								OFFSET 10.664888 -0.183372 -2.440700
								CHANNELS 3 Zrotation Yrotation Xrotation
								JOINT LeftForeArm
								{
									OFFSET 27.459126 0.000000 0.000000
									CHANNELS 3 Zrotation Yrotation Xrotation
									End Site #name: LeftHand
									{
										OFFSET 21.306858 0.000000 0.000000
									}
								}
							}
						}
					}
					JOINT Spine2_RightShoulder
					{
						OFFSET 0.000000 0.000000 0.000000
						CHANNELS 3 Zrotation Yrotation Xrotation
						JOINT RightShoulder
						{
							OFFSET -5.580300 6.737503 -0.344400
							CHANNELS 3 Zrotation Yrotation Xrotation
							JOINT RightArm
							{
								OFFSET -10.679335 -0.188484 -2.383900
								CHANNELS 3 Zrotation Yrotation Xrotation
								JOINT RightForeArm
								{
									OFFSET -27.503529 0.000000 0.000000
									CHANNELS 3 Zrotation Yrotation Xrotation
									End Site #name: RightHand
									{
										OFFSET -21.306808 0.000000 0.000000
									}
								}
							}
						}
					}
				}
			}
		}
	}
	JOINT Hips_LeftUpLeg
	{
		OFFSET 0.000000 0.000000 0.000000
		CHANNELS 3 Zrotation Yrotation Xrotation
		JOINT LeftUpLeg
		{
			OFFSET 6.857700 -6.739601 0.312100
			CHANNELS 3 Zrotation Yrotation Xrotation
			JOINT LeftLeg
			{
				OFFSET -0.367590 -34.731552 -4.572400
				CHANNELS 3 Zrotation Yrotation Xrotation
				End Site #name: LeftFoot
				{
					OFFSET 0.367590 -34.656704 -6.067400
				}
			}
		}
	}
	JOINT Hips_RightUpLeg
	{
		OFFSET 0.000000 0.000000 0.000000
		CHANNELS 3 Zrotation Yrotation Xrotation
		JOINT RightUpLeg
		{
			OFFSET -6.876100 -6.733299 0.301000
			CHANNELS 3 Zrotation Yrotation Xrotation
			JOINT RightLeg
			{
				OFFSET 0.347353 -34.795158 -4.515900
				CHANNELS 3 Zrotation Yrotation Xrotation
				End Site #name: RightFoot
				{
					OFFSET -0.347353 -34.589367 -6.070300
				}
			}
		}
	}
}
MOTION
Frames: 17
Frame Time: 0.041667
0.144805 0.043380 0.010477 0.455338 26.213179 -6.762095 -0.000000 0.000000 0.000000 -1.577062 -1.668120 1.337115 -0.356569 -1.613284 0.436158 0.000000 0.000000 0.000000 -0.442300 -1.032494 -1.028517 4.782623 0.104544 -7.061256 0.045422 -1.932480 -1.734938 -14.975906 -8.278343 2.055011 -45.798221 1.958979 11.050391 0.284144 -30.215211 6.087926 -0.627088 -1.085228 0.403467 13.673200 10.889792 4.067342 57.575779 -3.570181 -4.096807 -0.339672 47.741192 0.804055 0.000000 0.000000 0.000000 -10.209513 16.020725 -5.527584 -1.816280 -1.601536 24.685546 0.000000 0.000000 0.000000 -4.600198 13.030363 -7.885657 6.421559 0.263702 -2.394029 
0.684366 -0.034451 0.252661 2.077365 29.990723 -7.198809 -0.000000 0.000000 0.000000 -4.521178 -2.654973 1.084427 0.068303 -1.503133 0.014706 0.000000 0.000000 0.000000 -0.363756 -1.117543 -1.702567 6.377952 -1.396027 -7.611476 -0.545776 -1.619829 -2.377879 -19.923684 -3.638798 0.490457 -42.455675 2.039595 1.701092 -0.413785 -24.903993 3.877986 -0.423167 -1.413998 -0.184379 14.204563 7.784099 1.796760 59.887062 0.573168 -5.252404 -0.278180 45.700651 -0.512388 0.000000 0.000000 -0.000000 -12.665103 14.025941 -3.610538 -1.217028 2.015670 23.511324 0.000000 0.000000 0.000000 -8.144939 14.549498 -7.237892 6.550322 -0.362020 -1.791992 
0.995970 -0.074807 0.372909 3.477014 29.353964 -7.132547 -0.000000 0.000000 0.000000 -5.467513 -3.601738 1.280994 0.078917 -1.103769 -0.235760 0.000000 0.000000 0.000000 0.166417 -1.342445 -1.678937 5.878996 -1.764737 -9.057142 -0.642688 -1.408925 -2.216629 -23.646017 -2.814713 0.986967 -42.056536 8.896859 -3.530384 -0.940567 -25.852871 4.156418 -0.316435 -1.309275 -0.203483 13.298453 6.859525 1.913454 59.194179 2.609288 -3.886418 -0.022573 40.183870 -0.521033 0.000000 0.000000 -0.000000 -14.539187 13.334917 -2.137795 -1.851183 2.171351 22.445979 0.000000 0.000000 0.000000 -9.860508 15.274920 -9.130372 6.192450 -1.846962 2.557563 
1.291148 -0.124236 0.418792 4.199242 28.466109 -6.680283 -0.000000 0.000000 0.000000 -5.863456 -3.026706 2.032122 0.158288 -0.988660 -0.317375 0.000000 0.000000 0.000000 0.422445 -1.415744 -1.598460 5.717123 -2.464500 -8.073419 -0.508695 -1.408938 -2.105750 -25.405978 -2.624657 2.094653 -40.119006 9.389098 -2.583518 -0.535367 -25.500318 6.461675 -0.156964 -1.220643 -0.155445 12.221863 6.784730 1.836242 59.067559 5.285562 -2.300546 0.171835 42.503176 -0.486958 0.000000 0.000000 -0.000000 -15.385720 13.264368 -1.902074 -2.052838 2.629488 21.798423 0.000000 0.000000 0.000000 -11.118543 14.894061 -11.817812 5.557202 -2.127981 8.382369 
1.636079 -0.147058 0.428484 4.568142 28.126184 -6.142588 -0.000000 0.000000 -0.000000 -6.318771 -2.351581 1.868414 0.110888 -0.963192 -0.248499 0.000000 0.000000 0.000000 0.410714 -1.459434 -1.586750 5.424379 -3.056100 -6.711688 -0.444005 -1.503399 -1.967379 -27.477772 -1.934817 3.052351 -36.829673 8.569341 -1.933896 0.132418 -21.691612 8.583199 -0.099142 -1.190981 -0.038295 11.143774 6.795744 1.779402 59.715706 6.555841 -2.056076 0.246102 45.182849 -0.543613 0.000000 0.000000 -0.000000 -16.020089 13.322090 -1.899171 -2.024469 2.808651 21.191266 0.000000 0.000000 0.000000 -12.275045 14.436900 -13.683794 5.399231 -1.550888 12.405871 
2.009246 -0.150407 0.409399 4.720847 28.194685 -5.838979 -0.000000 0.000000 -0.000000 -6.499162 -1.947094 1.334254 0.047915 -0.957715 -0.190055 0.000000 0.000000 0.000000 0.235258 -1.475721 -1.520882 5.150230 -3.427480 -5.529025 -0.483682 -1.540021 -1.856383 -29.399730 -1.215837 3.451515 -34.763969 7.731855 -0.777701 0.707931 -17.023863 9.858527 -0.157035 -1.168744 0.003463 10.028664 6.858444 1.692096 60.950134 6.597442 -2.257235 0.352372 45.099296 -0.607828 0.000000 0.000000 -0.000000 -16.387048 13.487359 -1.957378 -1.960669 3.018937 20.809720 0.000000 0.000000 0.000000 -13.216403 13.971813 -14.436583 5.548189 -0.340080 14.642061 
2.393563 -0.141904 0.385283 4.688461 28.474865 -5.732278 -0.000000 0.000000 -0.000000 -6.430419 -1.674841 0.773809 -0.077191 -0.908493 -0.191059 0.000000 0.000000 0.000000 0.034033 -1.457301 -1.492120 4.860123 -3.704415 -4.732552 -0.598002 -1.522972 -1.858800 -30.844005 -0.479590 3.549213 -33.371536 7.202923 0.543321 1.104690 -12.531676 10.309560 -0.289726 -1.164838 -0.041297 9.169140 6.887438 1.612730 62.292371 5.566918 -3.517941 0.477226 43.114940 -0.579111 0.000000 0.000000 -0.000000 -16.567806 13.591574 -2.047508 -1.936448 3.255880 20.648915 0.000000 0.000000 0.000000 -13.946315 13.241658 -14.539391 5.782100 0.983761 15.958011 
2.768561 -0.127383 0.372992 4.552323 29.204946 -5.677387 -0.000000 0.000000 -0.000000 -6.471529 -1.374363 0.270313 -0.212475 -0.823725 -0.279383 0.000000 0.000000 0.000000 -0.114656 -1.419798 -1.555551 4.341272 -4.053767 -3.847260 -0.732828 -1.468922 -1.931676 -31.961385 0.157897 3.471958 -32.368015 6.866382 1.274566 1.200594 -9.499573 9.957255 -0.422626 -1.118149 -0.106394 8.743830 6.851730 1.563511 63.569005 4.376260 -4.533720 0.600957 40.127179 -0.519904 0.000000 0.000000 -0.000000 -16.579982 13.670110 -2.252065 -1.851691 3.528671 20.759406 0.000000 0.000000 0.000000 -14.468158 12.136116 -14.240871 5.928816 2.076834 16.645139 
3.109221 -0.106546 0.383135 4.329648 30.374873 -5.626433 -0.000000 0.000000 -0.000000 -6.757837 -1.024412 0.077529 -0.331396 -0.691624 -0.433046 0.000000 0.000000 0.000000 -0.245486 -1.360817 -1.671803 3.841711 -4.319910 -3.105613 -0.856423 -1.382565 -2.054975 -32.705913 0.612194 3.410019 -31.853163 6.532721 1.736847 1.088664 -8.013862 9.251685 -0.542225 -1.030370 -0.171237 8.561935 6.806677 1.527300 64.978236 3.592037 -4.883016 0.723665 36.777136 -0.458101 0.000000 0.000000 -0.000000 -16.494792 13.655907 -2.589288 -1.689716 3.786892 21.090735 0.000000 0.000000 0.000000 -14.815081 10.586811 -13.755061 5.863954 2.737685 16.920707 
3.411580 -0.080650 0.413965 4.060858 31.480696 -5.555553 -0.000000 0.000000 -0.000000 -7.200340 -0.670013 0.061405 -0.458366 -0.529532 -0.610668 0.000000 0.000000 0.000000 -0.403502 -1.277538 -1.816414 3.522638 -4.407787 -2.657506 -0.977941 -1.268077 -2.181208 -33.159018 0.952834 3.343972 -31.732689 6.437507 1.791454 0.928496 -7.490753 8.576116 -0.696023 -0.897497 -0.247840 8.416316 6.805233 1.468405 66.109111 3.288344 -4.674527 0.825263 34.171773 -0.411180 0.000000 0.000000 -0.000000 -16.351305 13.654090 -2.966571 -1.501400 4.015582 21.374954 0.000000 0.000000 0.000000 -14.954039 8.756053 -13.215081 5.682947 3.191001 16.907162 
3.669277 -0.051255 0.457802 3.753195 32.323460 -5.495580 -0.000000 0.000000 -0.000000 -7.664857 -0.365817 0.155553 -0.603196 -0.370454 -0.796053 0.000000 0.000000 0.000000 -0.576346 -1.186896 -1.942404 3.431773 -4.270981 -2.515547 -1.115495 -1.144082 -2.305817 -33.347456 1.220577 3.221101 -31.770004 6.312958 1.586218 0.798953 -7.626935 8.101365 -0.944928 -0.726689 -0.294948 8.271025 6.790671 1.398834 66.617780 3.352205 -4.324375 0.886919 32.330069 -0.388771 0.000000 0.000000 -0.000000 -16.190857 13.740138 -3.300815 -1.301181 4.209978 21.506203 0.000000 0.000000 0.000000 -14.884177 6.927409 -12.692390 5.464791 3.610621 16.627866 
3.874952 -0.019008 0.505745 3.464614 32.652491 -5.425484 -0.000000 0.000000 -0.000000 -8.144733 -0.109955 0.302580 -0.765124 -0.220928 -0.935069 0.000000 0.000000 0.000000 -0.768115 -1.098476 -2.047499 3.541261 -3.927475 -2.642323 -1.269416 -1.034112 -2.417652 -33.341339 1.482681 3.156306 -31.990744 5.997287 1.419419 0.750781 -8.105749 7.883215 -1.226690 -0.555646 -0.315869 8.200113 6.734236 1.350543 66.650484 3.652079 -3.823767 0.911062 31.496764 -0.396257 0.000000 0.000000 -0.000000 -15.997135 13.883124 -3.621893 -1.174285 4.360409 21.600145 0.000000 0.000000 0.000000 -14.728308 5.339961 -12.158176 5.216849 3.979208 15.968115 
4.021299 0.016683 0.551493 3.218844 32.475265 -5.354133 -0.000000 0.000000 -0.000000 -8.531407 0.098045 0.460428 -0.891289 -0.101198 -1.050728 0.000000 0.000000 0.000000 -0.974900 -1.015584 -2.128141 3.753716 -3.552570 -2.966943 -1.416445 -0.935265 -2.506862 -33.186047 1.714610 3.163466 -32.304244 5.498525 1.503106 0.745400 -8.661989 7.836547 -1.492127 -0.395354 -0.325341 8.183849 6.666011 1.308686 66.338201 4.079101 -3.375743 0.913793 31.355496 -0.403938 0.000000 0.000000 -0.000000 -15.752039 14.006598 -3.943146 -0.993276 4.751702 21.710634 0.000000 0.000000 0.000000 -14.464091 4.079692 -11.715104 4.915251 4.102663 15.159060 
4.110652 0.055814 0.590948 3.006572 31.881561 -5.293750 -0.000000 0.000000 -0.000000 -8.809616 0.233400 0.636782 -0.965458 -0.019543 -1.150227 0.000000 0.000000 0.000000 -1.135498 -0.952114 -2.196750 4.064758 -3.166793 -3.457484 -1.533269 -0.879985 -2.588275 -32.874180 1.876477 3.256363 -32.704469 4.936421 1.898190 0.751942 -9.227227 7.856637 -1.704810 -0.267939 -0.340345 8.197523 6.570306 1.273867 65.913367 4.515950 -3.174759 0.906330 31.592765 -0.408358 0.000000 0.000000 -0.000000 -15.518701 14.154138 -4.200655 -0.873044 5.039728 21.740034 0.000000 0.000000 0.000000 -14.201456 3.130817 -11.402934 4.564569 3.986524 14.362193 
4.144339 0.096488 0.618823 2.857324 30.917912 -5.231365 -0.000000 0.000000 -0.000000 -8.975119 0.289708 0.808430 -0.994946 0.028181 -1.257224 0.000000 0.000000 0.000000 -1.219337 -0.916805 -2.272348 4.452529 -2.783422 -4.069100 -1.606984 -0.827229 -2.691608 -32.426529 1.971906 3.429914 -33.210334 4.452109 2.460531 0.752319 -9.696954 7.902240 -1.828943 -0.190591 -0.374073 8.238613 6.473200 1.240695 65.429048 4.820943 -3.136793 0.895290 32.100411 -0.414314 0.000000 0.000000 -0.000000 -15.281527 14.383295 -4.390356 -0.878812 5.219933 21.691896 0.000000 0.000000 0.000000 -13.943153 2.436257 -11.262451 4.203255 3.653619 13.692662 
4.125689 0.136170 0.632754 2.768232 29.695621 -5.162481 -0.000000 0.000000 -0.000000 -9.029476 0.262528 0.963199 -0.971676 0.034857 -1.393547 0.000000 0.000000 0.000000 -1.212638 -0.914919 -2.362166 4.875956 -2.519745 -4.676305 -1.623776 -0.830515 -2.797340 -31.852930 1.989999 3.673258 -33.775019 4.134474 3.030036 0.738823 -10.139580 7.934748 -1.852719 -0.184925 -0.438916 8.285389 6.373497 1.211839 64.967088 4.983535 -3.251252 0.885646 32.780323 -0.413896 0.000000 0.000000 -0.000000 -15.009758 14.702902 -4.499903 -0.994400 5.344646 21.584080 0.000000 0.000000 0.000000 -13.712934 1.967361 -11.306092 3.878879 3.201929 13.172164 
4.058600 0.171896 0.632285 2.740790 28.369179 -5.075950 -0.000000 0.000000 -0.000000 -9.005131 0.161145 1.097243 -0.900097 0.003598 -1.548133 0.000000 0.000000 0.000000 -1.123021 -0.945382 -2.477218 5.239521 -2.333396 -5.207383 -1.584633 -0.882735 -2.909106 -31.154434 1.924611 3.991781 -34.493584 3.988938 3.628981 0.713397 -10.557450 7.950746 -1.774627 -0.235994 -0.528195 8.285771 6.279580 1.186048 64.553652 5.032259 -3.414975 0.874754 33.619963 -0.413934 0.000000 0.000000 -0.000000 -14.721505 15.140018 -4.552286 -1.136831 5.457962 21.486292 0.000000 0.000000 0.000000 -13.523089 1.684956 -11.483714 3.647976 2.817244 12.832967 
